<?xml version="1.0" encoding="utf-8"?>
<!-- Generator: Adobe Illustrator 22.1.0, SVG Export Plug-In . SVG Version: 6.00 Build 0)  -->
<svg version="1.1" id="Layer_1" xmlns="http://www.w3.org/2000/svg" xmlns:xlink="http://www.w3.org/1999/xlink" x="0px" y="0px"
	 viewBox="0 0 20 20" style="enable-background:new 0 0 20 20;" xml:space="preserve">
<style type="text/css">
	.st0{fill:#FFFFFF;}
	.st1{fill:#BDBDBD;}
	.st2{fill:none;stroke:#BDBDBD;stroke-linecap:round;stroke-miterlimit:10;}
	.st3{fill:none;stroke:#FFFFFF;stroke-linecap:round;stroke-miterlimit:10;}
	.st4{fill:none;stroke:#BDBDBD;stroke-width:0.25;stroke-linecap:round;stroke-miterlimit:10;}
	.st5{fill:none;stroke:#FFFFFF;stroke-width:0.25;stroke-linecap:round;stroke-miterlimit:10;}
	.st6{fill:#6C6C6F;}
	.st7{fill:none;stroke:#6C6C6F;stroke-linecap:round;stroke-miterlimit:10;}
	.st8{fill:none;stroke:#6C6C6F;stroke-width:0.25;stroke-linecap:round;stroke-miterlimit:10;}
</style>
<g id="XMLID_2_">
	<g>
		<path class="st0" d="M-10.4,7.2c2.3,0.9,3.9,3,3.9,5.4c0,3-2.5,5.5-5.8,5.8c3.2-0.3,5.7-2.8,5.7-5.8C-6.6,10.2-8.2,8.1-10.4,7.2
			c-0.1,0-0.2,0-0.2,0v0C-10.5,7.1-10.4,7.2-10.4,7.2z"/>
		<path class="st0" d="M-7.9,10.7C-7.9,10.7-8,10.6-7.9,10.7c-0.3-0.6-0.6-1-0.9-1.3c0,0-0.1-0.1-0.1-0.1c-0.4-0.4-0.9-0.8-1.5-1
			c0,0-0.1,0-0.1-0.1C-10.7,8.1-10.8,8.1-11,8V7c0.1,0.1,0.3,0.1,0.4,0.1c0,0,0.1,0,0.1,0c2.3,0.9,3.9,3,3.9,5.4
			c0,3-2.5,5.5-5.7,5.8c-0.2,0-0.4,0-0.7,0c-0.2,0-0.4,0-0.5,0c-3.2-0.3-5.6-2.8-5.6-5.8c0-0.8,0.1-1.6,0.4-2.3
			c0.6-1.4,1.9-2.5,3.4-3.1c0.3-0.1,0.5-0.2,0.8-0.3V7v0.9c-1.5,0.4-2.7,1.4-3.3,2.7c0,0,0,0.1,0,0.1h-0.1H-18
			c-0.2,0.6-0.4,1.2-0.4,1.9c0,2.6,2.2,4.6,4.9,4.8c0.1,0,0.3,0,0.4,0c0,0,0,0,0,0c0,0,0,0,0.1,0c1.3,0,2.4-0.4,3.4-1.1c0,0,0,0,0,0
			c1.2-0.9,2-2.2,2-3.8C-7.6,11.8-7.7,11.3-7.9,10.7z"/>
		<path class="st1" d="M-8.1,10.7c0.3,0.6,0.4,1.2,0.4,1.9c0,1.4-0.7,2.8-1.9,3.7c0,0,0,0,0,0c-0.3,0.2-0.6,0.4-0.9,0.5
			c1.6-0.8,2.8-2.4,2.8-4.2C-7.8,11.9-7.9,11.3-8.1,10.7L-8.1,10.7z"/>
		<path class="st1" d="M-8.2,10.7c0.3,0.6,0.4,1.2,0.4,1.9c0,1.8-1.1,3.4-2.8,4.2c-0.1,0-0.2,0.1-0.3,0.1c-0.6,0.2-1.3,0.4-2.1,0.4
			c-2.9,0-5.3-2.2-5.3-4.8c0-0.7,0.1-1.2,0.4-1.8h0h4.8H-8.2z M-8.9,12.6c0-0.4-0.4-0.8-0.8-0.8c-0.4,0-0.8,0.4-0.8,0.8
			c0,0.4,0.4,0.8,0.8,0.8C-9.2,13.4-8.9,13-8.9,12.6z M-10,15.3c0-0.3-0.2-0.5-0.5-0.5S-11,15-11,15.3s0.2,0.5,0.5,0.5
			S-10,15.6-10,15.3z M-11.9,13.3c0-0.4-0.4-0.8-0.8-0.8c-0.4,0-0.8,0.4-0.8,0.8c0,0.4,0.4,0.8,0.8,0.8
			C-12.2,14.1-11.9,13.7-11.9,13.3z M-14.3,14.9c0-0.3-0.2-0.5-0.5-0.5s-0.5,0.2-0.5,0.5c0,0.3,0.2,0.5,0.5,0.5
			S-14.3,15.2-14.3,14.9z M-15.6,12.7c0-0.3-0.2-0.5-0.5-0.5c-0.3,0-0.5,0.2-0.5,0.5s0.2,0.5,0.5,0.5C-15.8,13.2-15.6,13-15.6,12.7z
			"/>
		<path class="st0" d="M-8.1,10.6h-0.1c-0.5-1.1-1.5-2.1-2.9-2.5v0V8c0.2,0.1,0.4,0.1,0.5,0.2c0.1,0,0.1,0,0.1,0.1
			c0.5,0.3,1,0.6,1.5,1c0,0,0.1,0,0.1,0.1C-8.5,9.7-8.3,10.1-8.1,10.6z"/>
		<path class="st0" d="M-8.2,10.6H-13v0.1h-4.8c0.6-1.3,1.8-2.3,3.3-2.7v1v0.1h3.4V9V8.1C-9.8,8.5-8.7,9.5-8.2,10.6z"/>
		<circle class="st0" cx="-9.7" cy="12.6" r="0.8"/>
		<path class="st0" d="M-9,9.3c-0.4-0.4-0.9-0.8-1.5-1C-9.9,8.5-9.4,8.8-9,9.3z"/>
		<path class="st1" d="M-10.6,16.8c0.3-0.1,0.6-0.3,0.9-0.5c-0.9,0.7-2.1,1.1-3.4,1.1c0,0,0,0-0.1,0c0.8,0,1.5-0.2,2.2-0.5
			C-10.7,16.9-10.6,16.9-10.6,16.8z"/>
		<circle class="st0" cx="-10.5" cy="15.3" r="0.5"/>
		<path class="st0" d="M-10.6,7.1L-10.6,7.1c-0.1,0-0.3,0-0.4-0.1v0C-10.8,7.1-10.7,7.1-10.6,7.1z"/>
		<rect x="-14.5" y="9" class="st0" width="3.4" height="0.1"/>
		<path class="st0" d="M-11.1,8.1V9h-3.4V8c0.5-0.1,1-0.2,1.5-0.2c0.2,0,0.3,0,0.5,0c0.2,0,0.3,0,0.5,0.1C-11.7,7.9-11.4,8-11.1,8.1
			C-11.1,8.1-11.1,8.1-11.1,8.1z"/>
		<path class="st0" d="M-11.1,8.1L-11.1,8.1C-11.1,8.1-11.1,8.1-11.1,8.1C-11.4,8-11.7,7.9-12,7.9C-11.7,7.9-11.4,8-11.1,8.1z"/>
		<path class="st0" d="M-11.1,7v1c-0.4-0.1-0.9-0.2-1.4-0.2c-0.2,0-0.3,0-0.5,0c-0.5,0-1,0-1.5,0.2V7.9V7c0.5-0.1,1.1-0.2,1.6-0.2
			C-12.3,6.8-11.7,6.8-11.1,7z"/>
		<path class="st0" d="M-11.1,6.9L-11.1,6.9c-0.6-0.1-1.2-0.1-1.8-0.1c-0.5,0-1.1,0.1-1.6,0.2V6.9c0.5-0.1,1-0.2,1.6-0.2
			C-12.3,6.7-11.7,6.8-11.1,6.9z"/>
		<path class="st0" d="M-11.1,4.4v2.5c-0.6-0.1-1.2-0.2-1.8-0.2c-0.6,0-1.1,0.1-1.6,0.2V4.4H-11.1z"/>
		<path class="st1" d="M-12.9,17.3c0.7,0,1.4-0.1,2.1-0.4c-0.7,0.3-1.4,0.5-2.2,0.5c0,0,0,0,0,0c-0.1,0-0.3,0-0.4,0
			c-2.6-0.2-4.8-2.2-4.8-4.8c0-0.7,0.2-1.3,0.4-1.9h0.1c-0.3,0.6-0.4,1.1-0.4,1.8C-18.2,15.1-15.8,17.3-12.9,17.3z"/>
		<circle class="st0" cx="-12.7" cy="13.3" r="0.8"/>
		<circle class="st0" cx="-14.8" cy="14.9" r="0.5"/>
		<circle class="st0" cx="-16.1" cy="12.7" r="0.5"/>
		<path class="st0" d="M-18.3,12.6c0,2.5,2.1,4.5,4.8,4.8c-2.7-0.2-4.9-2.2-4.9-4.8c0-0.7,0.2-1.3,0.4-1.9h0.1
			C-18.1,11.3-18.3,11.9-18.3,12.6z"/>
		<path class="st0" d="M-15.3,7.2c-1.5,0.6-2.8,1.7-3.4,3.1C-18.1,8.9-16.8,7.7-15.3,7.2z"/>
	</g>
	<g>
		<path class="st2" d="M-11.1,7c0,0,0.1,0,0.1,0c0.1,0.1,0.3,0.1,0.4,0.1c0,0,0.1,0,0.1,0c2.3,0.9,3.9,3,3.9,5.4
			c0,3-2.5,5.5-5.7,5.8c-0.2,0-0.4,0-0.7,0c-0.2,0-0.4,0-0.5,0c-3.2-0.2-5.8-2.7-5.8-5.8c0-0.8,0.2-1.6,0.5-2.3
			c0.6-1.4,1.9-2.5,3.4-3.1c0.3-0.1,0.5-0.2,0.8-0.3"/>
		<polyline class="st3" points="-14.5,8 -14.5,7.9 -14.5,7 -14.5,6.9 -14.5,4.4 -11.1,4.4 -11.1,6.9 -11.1,7 -11.1,8 -11.1,8.1 		
			"/>
		<line class="st2" x1="-15.3" y1="7.2" x2="-15.3" y2="2.6"/>
		<polyline class="st2" points="-10.6,7.2 -10.6,7.2 -10.6,7.1 -10.6,2.6 		"/>
		<line class="st2" x1="-16.9" y1="2.2" x2="-9.2" y2="2.2"/>
		<line class="st4" x1="-11.4" y1="3.3" x2="-13.4" y2="3.3"/>
		<line class="st4" x1="-11.4" y1="6.1" x2="-13.4" y2="6.1"/>
		<line class="st4" x1="-11.4" y1="5.4" x2="-12.8" y2="5.4"/>
		<line class="st4" x1="-11.4" y1="4.7" x2="-12.8" y2="4.7"/>
		<line class="st4" x1="-11.4" y1="4" x2="-12.8" y2="4"/>
		<path class="st5" d="M-17.8,10.7c0.6-1.3,1.8-2.3,3.3-2.7c0.5-0.1,1-0.2,1.5-0.2"/>
		<path class="st5" d="M-13,7.8c0.2,0,0.3,0,0.5,0c0.2,0,0.3,0,0.5,0.1c0.3,0,0.6,0.1,0.8,0.2c0,0,0.1,0,0.1,0
			c1.3,0.4,2.4,1.3,2.9,2.5c0,0,0,0.1,0.1,0.1c0.3,0.6,0.4,1.2,0.4,1.9c0,1.8-1.1,3.4-2.8,4.2c-0.1,0-0.2,0.1-0.3,0.1
			c-0.7,0.3-1.4,0.5-2.2,0.5c0,0,0,0,0,0c-0.1,0-0.3,0-0.4,0c-2.7-0.2-4.9-2.2-4.9-4.8c0-0.7,0.2-1.3,0.4-1.9"/>
		<polyline class="st5" points="-13,10.7 -8.2,10.7 -8.1,10.7 -7.9,10.7 -7.8,10.7 		"/>
		<polyline class="st5" points="-17.9,10.7 -17.8,10.7 -17.8,10.7 -13,10.7 		"/>
		<polyline class="st5" points="-18.1,10.7 -18,10.7 -17.9,10.7 		"/>
		<circle class="st5" cx="-9.7" cy="12.6" r="0.8"/>
		<circle class="st5" cx="-10.5" cy="15.3" r="0.5"/>
		<circle class="st5" cx="-12.7" cy="13.3" r="0.8"/>
		<circle class="st5" cx="-16.1" cy="12.7" r="0.5"/>
		<circle class="st5" cx="-14.8" cy="14.9" r="0.5"/>
	</g>
</g>
<g id="XMLID_1_">
	<g>
		<path class="st0" d="M12.6,6.9c2.3,0.9,3.9,3,3.9,5.4c0,3-2.5,5.5-5.8,5.8c3.2-0.3,5.7-2.8,5.7-5.8c0-2.4-1.6-4.5-3.9-5.4
			c0,0-0.1,0-0.1,0v0C12.5,6.8,12.5,6.9,12.6,6.9z"/>
		<path class="st0" d="M15,10.4c0,0,0-0.1,0-0.1c-0.2-0.5-0.5-0.9-0.9-1.2C14.1,9,14,9,14,9c-0.4-0.4-0.9-0.8-1.5-1
			c0,0-0.1,0-0.1-0.1c-0.1-0.1-0.3-0.1-0.4-0.2v-1c0.1,0,0.3,0.1,0.4,0.1c0,0,0.1,0,0.1,0c2.3,0.9,3.9,3,3.9,5.4
			c0,3-2.5,5.5-5.7,5.8c-0.2,0-0.4,0-0.6,0c-0.2,0-0.4,0-0.6,0c-3.2-0.3-5.7-2.8-5.7-5.8c0-0.8,0.1-1.5,0.4-2.2c0,0,0-0.1,0-0.1
			c0.6-1.4,1.9-2.5,3.4-3.1C8,6.8,8.2,6.7,8.5,6.6v0.1v0.9C7,8,5.8,9,5.2,10.3c0,0,0,0.1,0,0.1H5.1H5c-0.2,0.6-0.4,1.2-0.4,1.9
			c0,2.6,2.2,4.6,4.9,4.8c0.2,0,0.3,0,0.4,0c0,0,0,0,0,0c0,0,0,0,0.1,0c1.3,0,2.4-0.4,3.4-1.1c0,0,0,0,0,0c1.2-0.9,2-2.2,2-3.8
			C15.4,11.5,15.3,11,15,10.4z"/>
		<path class="st1" d="M14.9,10.4c0.3,0.6,0.4,1.2,0.4,1.9c0,1.4-0.8,2.8-1.9,3.7c0,0,0,0,0,0c-0.3,0.2-0.6,0.4-0.9,0.5
			c1.7-0.8,2.8-2.4,2.8-4.2c0-0.7-0.1-1.3-0.4-1.9H14.9z"/>
		<path class="st6" d="M14.8,10.4c0.3,0.6,0.4,1.2,0.4,1.9c0,1.8-1.1,3.4-2.8,4.2c-0.1,0-0.2,0.1-0.3,0.1c-0.6,0.2-1.3,0.4-2.1,0.4
			c-2.9,0-5.3-2.2-5.3-4.8c0-0.7,0.1-1.2,0.4-1.8h0H10H14.8z M14.1,12.3c0-0.4-0.4-0.8-0.8-0.8s-0.8,0.4-0.8,0.8s0.4,0.8,0.8,0.8
			S14.1,12.7,14.1,12.3z M13,15c0-0.3-0.2-0.5-0.5-0.5S12,14.7,12,15s0.2,0.5,0.5,0.5S13,15.3,13,15z M11.1,13
			c0-0.4-0.4-0.8-0.8-0.8S9.5,12.6,9.5,13c0,0.4,0.4,0.8,0.8,0.8S11.1,13.4,11.1,13z M8.7,14.6c0-0.3-0.2-0.5-0.5-0.5
			c-0.3,0-0.5,0.2-0.5,0.5c0,0.3,0.2,0.5,0.5,0.5C8.5,15.1,8.7,14.9,8.7,14.6z M7.4,12.4c0-0.3-0.2-0.5-0.5-0.5
			c-0.3,0-0.5,0.2-0.5,0.5c0,0.3,0.2,0.5,0.5,0.5C7.2,12.9,7.4,12.7,7.4,12.4z"/>
		<path class="st0" d="M14.9,10.3h-0.2c-0.5-1.1-1.5-2.1-2.8-2.5v0V7.7c0.2,0,0.3,0.1,0.5,0.2c0.1,0,0.1,0,0.1,0.1
			c0.5,0.3,1,0.6,1.5,1c0,0,0.1,0.1,0.1,0.1C14.4,9.4,14.7,9.8,14.9,10.3z"/>
		<path class="st0" d="M14.7,10.3H10v0.1H5.2C5.8,9.1,7,8.1,8.5,7.7v1v0.1h3.4V8.7V7.8C13.2,8.2,14.2,9.2,14.7,10.3z"/>
		<circle class="st0" cx="13.3" cy="12.3" r="0.8"/>
		<path class="st0" d="M14,9c-0.4-0.4-0.9-0.8-1.5-1C13.1,8.2,13.6,8.5,14,9z"/>
		<path class="st1" d="M12.4,16.5c0.3-0.1,0.7-0.3,0.9-0.5c-0.9,0.7-2.1,1.1-3.4,1.1c0,0,0,0-0.1,0c0.8,0,1.5-0.2,2.2-0.5
			C12.2,16.6,12.3,16.5,12.4,16.5z"/>
		<circle class="st0" cx="12.5" cy="15" r="0.5"/>
		<path class="st0" d="M12.4,6.8L12.4,6.8c-0.1,0-0.3,0-0.4-0.1v0C12.1,6.8,12.3,6.8,12.4,6.8z"/>
		<rect x="8.5" y="8.7" class="st0" width="3.4" height="0.1"/>
		<path class="st0" d="M11.9,7.8v0.9H8.5v-1C9,7.6,9.5,7.5,10,7.5c0.2,0,0.3,0,0.5,0c0.2,0,0.3,0,0.5,0.1c0.3,0,0.6,0.1,0.8,0.2
			C11.8,7.8,11.9,7.8,11.9,7.8z"/>
		<path class="st0" d="M11.9,7.8L11.9,7.8c0,0-0.1,0-0.1,0c-0.2-0.1-0.5-0.2-0.8-0.2C11.3,7.6,11.6,7.7,11.9,7.8z"/>
		<path class="st0" d="M11.9,6.7v1c-0.5-0.1-0.9-0.2-1.4-0.2c-0.2,0-0.3,0-0.5,0c-0.5,0-1,0-1.5,0.2V7.6V6.7C9,6.6,9.6,6.5,10.1,6.5
			C10.7,6.5,11.3,6.5,11.9,6.7z"/>
		<path class="st0" d="M11.9,6.6L11.9,6.6c-0.6-0.1-1.2-0.1-1.8-0.1C9.6,6.5,9,6.6,8.5,6.7V6.6c0.5-0.1,1-0.2,1.6-0.2
			C10.7,6.4,11.3,6.5,11.9,6.6z"/>
		<path class="st0" d="M11.9,4.1v2.5c-0.6-0.1-1.2-0.2-1.8-0.2C9.5,6.4,9,6.5,8.5,6.6V4.1H11.9z"/>
		<path class="st1" d="M10.1,17c0.7,0,1.4-0.1,2.1-0.4c-0.7,0.3-1.4,0.5-2.2,0.5c0,0,0,0,0,0c-0.2,0-0.3,0-0.4,0
			c-2.6-0.2-4.8-2.3-4.8-4.8c0-0.7,0.2-1.3,0.4-1.9h0.1c-0.3,0.6-0.4,1.1-0.4,1.8C4.8,14.8,7.2,17,10.1,17z"/>
		<circle class="st0" cx="10.3" cy="13" r="0.8"/>
		<circle class="st0" cx="8.2" cy="14.6" r="0.5"/>
		<circle class="st0" cx="6.9" cy="12.4" r="0.5"/>
		<path class="st0" d="M4.7,12.3c0,2.5,2.1,4.5,4.8,4.8C6.8,16.9,4.6,14.9,4.7,12.3C4.6,11.6,4.8,11,5,10.4h0.1
			C4.9,11,4.7,11.6,4.7,12.3z"/>
		<path class="st0" d="M7.7,6.9C6.2,7.5,4.9,8.6,4.3,10C4.9,8.6,6.1,7.4,7.7,6.9z"/>
	</g>
	<g>
		<path class="st2" d="M9.5,18.1c-3.2-0.3-5.7-2.8-5.7-5.8c0-0.8,0.1-1.5,0.4-2.2"/>
		<path class="st7" d="M4.3,10c0.6-1.4,1.9-2.5,3.4-3.1C8,6.8,8.2,6.7,8.5,6.6"/>
		<path class="st7" d="M11.9,6.7C11.9,6.7,12,6.7,11.9,6.7c0.2,0.1,0.4,0.1,0.5,0.2c0,0,0.1,0,0.1,0c2.3,0.9,3.9,3,3.9,5.4
			c0,3-2.5,5.5-5.7,5.8c-0.2,0-0.4,0-0.6,0c-0.2,0-0.4,0-0.6,0c-3.2-0.2-5.8-2.7-5.8-5.8c0-0.8,0.2-1.5,0.5-2.2"/>
		<polyline class="st3" points="8.5,7.7 8.5,7.6 8.5,6.7 8.5,6.6 8.5,4.1 11.9,4.1 11.9,6.6 11.9,6.7 11.9,7.7 11.9,7.8 		"/>
		<line class="st7" x1="7.7" y1="6.9" x2="7.7" y2="2.3"/>
		<polyline class="st7" points="12.4,6.9 12.4,6.9 12.4,6.8 12.4,2.3 		"/>
		<line class="st7" x1="6.1" y1="1.9" x2="13.8" y2="1.9"/>
		<line class="st8" x1="11.6" y1="3" x2="9.6" y2="3"/>
		<line class="st8" x1="11.6" y1="5.8" x2="9.6" y2="5.8"/>
		<line class="st8" x1="11.6" y1="5.1" x2="10.2" y2="5.1"/>
		<line class="st8" x1="11.6" y1="4.4" x2="10.2" y2="4.4"/>
		<line class="st8" x1="11.6" y1="3.7" x2="10.2" y2="3.7"/>
		<path class="st5" d="M5.2,10.4C5.8,9.1,7,8.1,8.5,7.7C9,7.6,9.5,7.5,10,7.5"/>
		<path class="st5" d="M10,7.5c0.2,0,0.3,0,0.5,0c0.2,0,0.3,0,0.5,0.1c0.3,0,0.6,0.1,0.8,0.2c0,0,0.1,0,0.1,0
			c1.3,0.4,2.3,1.3,2.8,2.5c0,0,0,0.1,0.1,0.1c0.3,0.6,0.4,1.2,0.4,1.9c0,1.8-1.1,3.4-2.8,4.2c-0.1,0-0.2,0.1-0.3,0.1
			c-0.7,0.3-1.4,0.5-2.2,0.5c0,0,0,0,0,0c-0.2,0-0.3,0-0.4,0c-2.7-0.2-4.9-2.2-4.9-4.8c0-0.7,0.2-1.3,0.4-1.9"/>
		<polyline class="st5" points="10,10.4 14.8,10.4 14.9,10.4 15,10.4 15.2,10.4 		"/>
		<polyline class="st5" points="5.1,10.4 5.2,10.4 5.2,10.4 10,10.4 		"/>
		<polyline class="st5" points="4.9,10.4 5,10.4 5.1,10.4 		"/>
		<circle class="st5" cx="13.3" cy="12.3" r="0.8"/>
		<circle class="st5" cx="12.5" cy="15" r="0.5"/>
		<circle class="st5" cx="10.3" cy="13" r="0.8"/>
		<circle class="st5" cx="6.9" cy="12.4" r="0.5"/>
		<circle class="st5" cx="8.2" cy="14.6" r="0.5"/>
	</g>
</g>
</svg>
